<svg width="280" height="230" viewBox="0 0 280 230" fill="none" xmlns="http://www.w3.org/2000/svg">
<path d="M269.453 88.3198L45.4856 97.0275C46.598 96.1608 47.7516 95.2942 48.9464 94.4276C62.5015 94.1799 73.3373 93.9323 75.8917 93.8498C87.2219 93.3958 91.3832 86.8341 106.421 86.2151C121.418 85.6373 168.676 83.7802 177.493 83.4501C195.456 82.7485 186.886 89.5166 203.449 88.8563C211.442 88.5261 241.354 86.9166 270.194 85.3484C269.947 86.3389 269.7 87.2881 269.453 88.2785M207.363 4.25545C205.55 4.95702 203.696 5.69986 201.842 6.48396L279.052 3.47135C278.888 2.39836 278.682 1.40791 278.434 0.5C248.77 2.15075 216.551 3.88403 207.363 4.25545ZM248.852 154.308C232.29 155.216 218.693 155.918 213.708 156.083C197.104 156.743 205.674 149.975 187.752 150.677C178.935 151.007 121.707 153.235 106.71 153.854C91.6716 154.432 87.5515 161.035 76.1801 161.448C70.8652 161.654 29.1289 162.397 2.63684 162.892C3.25485 163.965 3.99647 165.08 4.86168 166.235L247.946 156.785C248.275 155.959 248.564 155.134 248.894 154.35M273.49 71.3171C273.696 70.3679 273.902 69.4187 274.067 68.5108C247.534 69.9552 221.619 71.3584 214.244 71.6472C197.681 72.3075 206.251 65.5395 188.287 66.241C179.47 66.5712 131.265 68.4696 116.268 69.0473C101.271 69.6251 97.1101 76.2281 85.7387 76.6407C84.2554 76.682 79.9706 76.8058 73.9553 76.9296C72.8016 77.7137 71.648 78.4978 70.4944 79.2407L273.449 71.3584L273.49 71.3171ZM260.594 119.808C236.039 121.17 213.09 122.366 206.21 122.614C189.606 123.274 198.175 116.506 180.253 117.208C171.436 117.538 116.104 119.684 101.107 120.303C86.1095 120.881 81.9482 127.484 70.618 127.896C66.1271 128.062 35.8446 128.639 10.5474 129.093C9.64097 130.208 8.81695 131.281 8.03414 132.353L259.77 122.573C260.059 121.665 260.347 120.757 260.594 119.808ZM264.797 105.446C265.085 104.497 265.333 103.548 265.621 102.599C238.841 104.043 212.554 105.488 205.138 105.776C188.534 106.437 197.104 99.6687 179.182 100.37C170.365 100.7 115.527 102.846 100.489 103.424C85.4915 104.002 81.3302 110.605 69.9588 111.018C66.498 111.141 47.5456 111.513 27.4397 111.884C26.3273 112.875 25.256 113.865 24.226 114.814L264.838 105.446H264.797ZM280 17.3376C249.264 19.0296 215.191 20.8867 206.58 21.2169C190.018 21.8772 198.505 15.1504 180.748 15.8107C174.815 18.617 168.593 21.6296 162.084 24.9723L279.918 20.3915C279.918 19.3598 279.918 18.3693 279.959 17.3789M223.555 54.3969C206.951 55.0572 215.521 48.2892 197.599 48.9907C188.782 49.3209 138.682 51.2605 123.685 51.8795C116.804 52.1684 112.231 53.6541 108.152 55.3048C106.669 56.2127 105.185 57.0794 103.661 58.0286C101.848 59.1428 100.077 60.2158 98.3461 61.3301L276.58 54.3969C276.745 53.489 276.869 52.5811 276.992 51.6732C252.766 52.9938 230.312 54.1906 223.555 54.4382M225.285 37.4768C208.682 38.1371 217.251 31.369 199.329 32.0706C193.314 32.3182 166.245 33.3499 144.779 34.2165C139.547 37.0641 134.15 40.0767 128.629 43.2544L278.846 37.3942C278.929 36.4863 279.052 35.5784 279.135 34.6705C254.785 35.9911 232.125 37.1879 225.327 37.4768M217.251 173.003C200.647 173.663 209.217 166.895 191.295 167.597C182.478 167.927 130.483 169.949 115.486 170.568C100.489 171.146 96.3273 177.749 84.9559 178.162C80.053 178.368 44.4556 178.987 18.1695 179.482C19.4879 180.514 20.8476 181.546 22.2896 182.619L240.901 174.117C241.23 173.333 241.56 172.59 241.889 171.806C230.271 172.425 221.165 172.879 217.251 173.044M215.521 223.764C213.255 223.887 211.442 223.97 210.165 224.011C193.561 224.672 202.131 217.903 184.208 218.605C176.669 218.894 124.591 220.916 100.324 221.865C107.287 224.63 114.002 227.189 120.471 229.5L213.749 225.868C214.367 225.208 214.944 224.465 215.521 223.764ZM214.573 190.047C197.969 190.707 206.539 183.939 188.617 184.641C179.8 184.971 129.7 186.952 114.703 187.53C99.7057 188.107 95.5444 194.71 84.173 195.123C80.7946 195.247 62.9135 195.618 43.5491 195.949C45.0736 196.774 46.6392 197.641 48.2872 198.507L233.155 191.326C233.526 190.584 233.855 189.841 234.185 189.098C224.997 189.593 217.911 189.923 214.614 190.047M254.25 139.782C254.538 138.915 254.868 138.007 255.156 137.141C232.784 138.337 212.76 139.41 206.457 139.658C189.853 140.318 198.423 133.55 180.5 134.252C171.683 134.582 114.456 136.811 99.4585 137.388C84.4614 137.966 80.3002 144.569 68.9288 144.982C63.9435 145.188 27.1513 145.848 0.741614 146.302C0.412008 147.499 0.164803 148.613 0 149.645L254.291 139.741L254.25 139.782ZM213.832 206.967C197.228 207.628 205.798 200.86 187.875 201.561C179.058 201.891 130.853 203.79 115.856 204.367C100.859 204.945 96.6981 211.548 85.3267 211.961C84.1318 212.002 81.1654 212.085 76.9629 212.167C78.4462 212.827 79.9706 213.446 81.495 214.107L224.915 208.536C225.244 207.793 225.615 207.091 225.945 206.39C220.383 206.678 216.18 206.885 213.832 206.967Z" fill="#C79A79"/>
</svg>
