<svg width="107" height="75" viewBox="0 0 107 75" fill="none" xmlns="http://www.w3.org/2000/svg">
<g clip-path="url(#clip0_8652_12148)">
<path d="M74.1637 48.1324H71.4351L71.5721 50.5885V52.2705H69.753V50.5885L69.8434 48.1324H67.0696V46.449H74.1637V48.1324Z" fill="white"/>
<path d="M99.2132 48.1327H96.4846L96.6216 50.5887V52.2708H94.8025V50.5887L94.8929 48.1327H92.1191V46.4492H99.2132V48.1327Z" fill="white"/>
<path d="M8.16611 42.4362H6.29492V6.91162H8.16611V42.4362Z" fill="white"/>
<path d="M45.5942 24.1617C45.5942 35.2137 39.2789 42.6986 29.1624 42.6986C19.1633 42.6986 12.7314 35.2137 12.7314 24.1617V6.91162H29.1624C39.3962 6.91162 45.5942 13.7534 45.5942 24.1617ZM43.723 24.1617C43.723 14.8056 38.2259 8.49026 29.1624 8.49026H14.6027V24.1617C14.6027 34.2781 20.2742 41.1199 29.1624 41.1199C38.168 41.1199 43.723 34.2781 43.723 24.1617Z" fill="white"/>
<path d="M106.427 6.91162V27.4363C106.427 38.0205 102.624 42.5464 94.8469 42.5464C92.2154 42.5464 89.8785 42.582 87.5982 41.8803L87.8908 40.3596C89.9958 41.0026 92.6665 40.9648 94.7137 40.9648C101.672 40.9648 104.614 36.9097 104.614 27.3197V8.49026H75.4941V6.91162H106.427ZM77.8918 53.3415H76.0785V22.1152L77.8918 21.764V53.3415Z" fill="white"/>
<path d="M69.7041 42.4362H71.5174V6.91162H42.9814V8.4903H69.7041V42.4362Z" fill="white"/>
<path d="M2.57411 5.04178C3.93697 5.04178 5.04178 3.93697 5.04178 2.57411C5.04178 1.21126 3.93697 0.106445 2.57411 0.106445C1.21126 0.106445 0.106445 1.21126 0.106445 2.57411C0.106445 3.93697 1.21126 5.04178 2.57411 5.04178Z" fill="white"/>
<path d="M14.5042 67.583V72.3693H6.29492V63.6675H10.4286C13.2856 63.6675 14.5042 64.8855 14.5042 67.583ZM13.141 71.2088V67.685C13.141 65.7266 12.3141 64.8274 10.4144 64.8274H7.65882V71.2088H13.141Z" fill="white"/>
<path d="M17.8037 63.6675V68.5842L16.4404 68.8159V63.6675H17.8037Z" fill="white"/>
<path d="M21.3008 63.6675V68.5842L19.9375 68.8159V63.6675H21.3008Z" fill="white"/>
<path d="M31.659 67.8154V72.3693H30.2951V67.8154C30.2951 65.8137 29.4398 64.8274 27.5686 64.8274H24.944V72.3693H23.5801V63.6675H27.5686C30.3532 63.6675 31.659 64.9578 31.659 67.8154Z" fill="white"/>
<path d="M39.6744 74.8932H38.3105V63.6675H39.6744V74.8932Z" fill="white"/>
<path d="M43.4332 72.3693H42.0693V63.6675H43.4332V72.3693Z" fill="white"/>
<path d="M45.4072 71.2088H47.8582V66.6116C47.8582 65.4077 47.4954 64.8274 46.5381 64.8274H45.7261V63.6675H46.9299C48.5546 63.6675 49.2214 64.5376 49.2214 66.2636V72.3693H45.4072V71.2088Z" fill="white"/>
<path d="M55.0847 65.9732V72.3693H54.0403L53.837 70.4406L53.7937 70.4258C53.3877 71.6006 52.5318 72.3693 51.2414 72.3693H50.6611V71.0932H51.2414C52.9087 71.0932 53.7795 69.8171 53.7795 68.497V66.2488C53.7795 65.3064 53.3444 64.8274 52.4595 64.8274H51.5022V63.6675H52.706C54.2869 63.6675 55.0847 64.4505 55.0847 65.9732Z" fill="white"/>
<path d="M65.4868 67.9458C65.4868 70.7595 63.8769 72.5436 61.2808 72.5436C58.6704 72.5436 57.0605 70.7595 57.0605 67.9458V63.6675H61.2808C63.9641 63.6675 65.4868 65.2483 65.4868 67.9458ZM64.1235 67.9458C64.1235 66.0171 63.123 64.8274 61.2808 64.8274H58.4238V67.9458C58.4238 70.0346 59.4973 71.383 61.2808 71.383C63.0649 71.383 64.1235 70.0346 64.1235 67.9458Z" fill="white"/>
<path d="M73.1396 72.3693H71.7764V63.6675H73.1396V72.3693Z" fill="white"/>
<path d="M75.1145 71.2088H77.5654V66.6116C77.5654 65.4077 77.2027 64.8274 76.2454 64.8274H75.4334V63.6675H76.6372C78.2619 63.6675 78.9287 64.5376 78.9287 66.2636V72.3693H75.1145V71.2088Z" fill="white"/>
<path d="M82.4851 63.6675V68.5842L81.1218 68.8159V63.6675H82.4851Z" fill="white"/>
<path d="M85.9834 63.6675V68.5842L84.6201 68.8159V63.6675H85.9834Z" fill="white"/>
<path d="M97.2839 67.9749C97.2839 71.6154 95.1086 73.2976 91.7436 72.0356L92.0483 70.9338C94.6154 71.9343 95.9929 70.7305 95.9929 67.9749C95.9929 66.0023 94.9201 64.7403 93.4548 64.7403C91.845 64.7403 91.0329 66.3217 90.5107 68.2357L89.394 72.3694H88.045L89.1617 68.2937L87.5957 63.6675H88.9441L89.8872 66.6116C90.4675 64.9004 91.6274 63.5371 93.3967 63.5371C95.7321 63.5371 97.2839 65.3645 97.2839 67.9749Z" fill="white"/>
<path d="M106.428 63.6675V64.8274C105.093 64.8274 104.397 65.611 104.397 67.2209V72.3693H103.034V67.2642C103.034 65.988 103.469 65.2483 104.122 64.8274H98.2627V63.6675H106.428Z" fill="white"/>
</g>
<defs>
<clipPath id="clip0_8652_12148">
<rect width="106.534" height="75" fill="white"/>
</clipPath>
</defs>
</svg>
