<svg width="139" height="98" viewBox="0 0 139 98" fill="none" xmlns="http://www.w3.org/2000/svg">
<path d="M96.8196 62.9326H93.2523L93.4314 66.1509V68.3551H91.0532V66.1509L91.1714 62.9326H87.545V60.7266H96.8196V62.9326Z" fill="#2A2A2A"/>
<path d="M129.568 62.9326H126L126.179 66.1509V68.3551H123.801V66.1509L123.919 62.9326H120.293V60.7266H129.568V62.9326Z" fill="#2A2A2A"/>
<path d="M10.5363 55.469H8.08995V8.91797H10.5363V55.469Z" fill="#2A2A2A"/>
<path d="M59.4674 31.5223C59.4674 46.0048 51.211 55.8128 37.9852 55.8128C24.9128 55.8128 16.504 46.0048 16.504 31.5223V8.91797H37.9852C51.3644 8.91797 59.4674 17.8834 59.4674 31.5223ZM57.0211 31.5223C57.0211 19.2622 49.8344 10.9866 37.9852 10.9866H18.9504V31.5223C18.9504 44.7788 26.3651 53.7442 37.9852 53.7442C49.7587 53.7442 57.0211 44.7788 57.0211 31.5223Z" fill="#2A2A2A"/>
<path d="M139 8.91797V35.8133C139 49.6828 134.027 55.6135 123.86 55.6135C120.419 55.6135 117.364 55.6601 114.383 54.7406L114.766 52.7478C117.518 53.5904 121.009 53.5409 123.686 53.5409C132.783 53.5409 136.629 48.2272 136.629 35.6606V10.9866H98.5587V8.91797H139ZM101.693 69.7592H99.3227V28.8406L101.693 28.3804V69.7592Z" fill="#2A2A2A"/>
<path d="M90.9909 55.469H93.3615V8.91797H56.0548V10.9867H90.9909V55.469Z" fill="#2A2A2A"/>
<path d="M3.22623 6.46722C5.00797 6.46722 6.45235 5.01948 6.45235 3.23361C6.45235 1.44774 5.00797 0 3.22623 0C1.44449 0 0.000106812 1.44774 0.000106812 3.23361C0.000106812 5.01948 1.44449 6.46722 3.22623 6.46722Z" fill="#2A2A2A"/>
<path d="M18.8225 88.1251V94.397H8.08995V82.9941H13.4942C17.2292 82.9941 18.8225 84.5903 18.8225 88.1251ZM17.0402 92.8762V88.2587C17.0402 85.6924 15.9592 84.5141 13.4756 84.5141H9.87305V92.8762H17.0402Z" fill="#2A2A2A"/>
<path d="M23.1379 82.9961V89.4389L21.3556 89.7426V82.9961H23.1379Z" fill="#2A2A2A"/>
<path d="M27.7082 82.9941V89.4369L25.9259 89.7406V82.9941H27.7082Z" fill="#2A2A2A"/>
<path d="M41.2497 88.4295V94.397H39.4666V88.4295C39.4666 85.8066 38.3484 84.5141 35.902 84.5141H32.4707V94.397H30.6876V82.9941H35.902C39.5425 82.9941 41.2497 84.685 41.2497 88.4295Z" fill="#2A2A2A"/>
<path d="M51.7285 97.7042H49.9454V82.9941H51.7285V97.7042Z" fill="#2A2A2A"/>
<path d="M56.6426 94.397H54.8595V82.9941H56.6426V94.397Z" fill="#2A2A2A"/>
<path d="M59.2228 92.8781H62.427V86.854C62.427 85.2765 61.9528 84.5161 60.7013 84.5161H59.6397V82.9961H61.2135C63.3375 82.9961 64.2093 84.1363 64.2093 86.3981V94.3989H59.2228V92.8781Z" fill="#2A2A2A"/>
<path d="M71.877 86.0155V94.397H70.5116L70.2458 91.8696L70.1892 91.8501C69.6584 93.3896 68.5395 94.397 66.8525 94.397H66.0939V92.7247H66.8525C69.0323 92.7247 70.1707 91.0525 70.1707 89.3228V86.3767C70.1707 85.1417 69.6019 84.5141 68.4449 84.5141H67.1934V82.9941H68.7673C70.834 82.9941 71.877 84.0202 71.877 86.0155Z" fill="#2A2A2A"/>
<path d="M85.4732 88.6004C85.4732 92.2874 83.3686 94.6253 79.9745 94.6253C76.5618 94.6253 74.4571 92.2874 74.4571 88.6004V82.9941H79.9745C83.4825 82.9941 85.4732 85.0656 85.4732 88.6004ZM83.691 88.6004C83.691 86.073 82.3829 84.5141 79.9745 84.5141H76.2394V88.6004C76.2394 91.3375 77.6428 93.1045 79.9745 93.1045C82.307 93.1045 83.691 91.3375 83.691 88.6004Z" fill="#2A2A2A"/>
<path d="M95.4777 94.3989H93.6954V82.9961H95.4777V94.3989Z" fill="#2A2A2A"/>
<path d="M98.0607 92.8781H101.265V86.854C101.265 85.2765 100.791 84.5161 99.5392 84.5161H98.4775V82.9961H100.051C102.175 82.9961 103.047 84.1363 103.047 86.3981V94.3989H98.0607V92.8781Z" fill="#2A2A2A"/>
<path d="M107.698 82.9961V89.4389L105.916 89.7426V82.9961H107.698Z" fill="#2A2A2A"/>
<path d="M112.271 82.9941V89.4369L110.488 89.7406V82.9941H112.271Z" fill="#2A2A2A"/>
<path d="M127.045 88.6394C127.045 93.41 124.201 95.6142 119.802 93.9606L120.2 92.5168C123.556 93.8278 125.357 92.2503 125.357 88.6394C125.357 86.0545 123.955 84.4009 122.039 84.4009C119.934 84.4009 118.873 86.4732 118.19 88.9812L116.73 94.3979H114.966L116.426 89.0573L114.379 82.9951H116.142L117.375 86.853C118.133 84.6106 119.65 82.8242 121.963 82.8242C125.016 82.8242 127.045 85.2188 127.045 88.6394Z" fill="#2A2A2A"/>
<path d="M138.999 82.9941V84.5141C137.254 84.5141 136.345 85.541 136.345 87.6505V94.397H134.562V87.7072C134.562 86.035 135.131 85.0656 135.984 84.5141H128.324V82.9941H138.999Z" fill="#2A2A2A"/>
</svg>
