<svg width="80" height="40" viewBox="0 0 80 40" fill="none" xmlns="http://www.w3.org/2000/svg">
<path d="M1.90855 3.70833C2.93257 3.70833 3.76271 2.87819 3.76271 1.85416C3.76271 0.830138 2.93257 0 1.90855 0C0.88452 0 0.0543823 0.830138 0.0543823 1.85416C0.0543823 2.87819 0.88452 3.70833 1.90855 3.70833Z" fill="#2A2A2A"/>
<path d="M55.6973 36.0862H53.647L53.75 37.9316V39.1955H52.3831V37.9316L52.4511 36.0862H50.3669V34.8213H55.6973V36.0862Z" fill="#2A2A2A"/>
<path d="M74.5254 36.0862H72.4752L72.5781 37.9316V39.1955H71.2113V37.9316L71.2792 36.0862H69.195V34.8213H74.5254V36.0862Z" fill="#2A2A2A"/>
<path d="M6.1088 31.8058H4.70282V5.11328H6.1088V31.8058Z" fill="#2A2A2A"/>
<path d="M34.2313 18.0747C34.2313 26.379 29.4861 32.003 21.8847 32.003C14.3716 32.003 9.53876 26.379 9.53876 18.0747V5.11328H21.8847C29.5742 5.11328 34.2313 10.2541 34.2313 18.0747ZM32.8253 18.0747C32.8253 11.0447 28.6949 6.29945 21.8847 6.29945H10.9448V18.0747C10.9448 25.676 15.2062 30.8168 21.8847 30.8168C28.6514 30.8168 32.8253 25.676 32.8253 18.0747Z" fill="#2A2A2A"/>
<path d="M79.9456 5.11328V20.5352C79.9456 28.488 77.0879 31.8887 71.2442 31.8887C69.2669 31.8887 67.511 31.9154 65.7976 31.3882L66.0174 30.2455C67.5992 30.7287 69.6059 30.7003 71.1441 30.7003C76.3724 30.7003 78.5831 27.6533 78.5831 20.4476V6.29945H56.7028V5.11328H79.9456ZM58.5044 39.9999H57.1419V16.537L58.5044 16.2731V39.9999Z" fill="#2A2A2A"/>
<path d="M52.3443 31.8058H53.7068V5.11328H32.2653V6.29947H52.3443V31.8058Z" fill="#2A2A2A"/>
<path d="M1.90855 3.70833C2.93257 3.70833 3.76271 2.87819 3.76271 1.85416C3.76271 0.830138 2.93257 0 1.90855 0C0.88452 0 0.0543823 0.830138 0.0543823 1.85416C0.0543823 2.87819 0.88452 3.70833 1.90855 3.70833Z" fill="#2A2A2A"/>
</svg>
