<svg width="346" height="230" viewBox="0 0 346 230" fill="none" xmlns="http://www.w3.org/2000/svg">
<path d="M22.4396 1.58344C21.6194 6.94603 21.1988 10.5141 21.1988 12.2664V20.6058C21.1988 23.3505 21.4512 26.264 21.9769 29.3253L13.3123 32.1966C14.2587 27.024 14.7424 22.5271 14.7424 18.7268C14.7424 14.4832 14.6162 10.9785 14.3428 8.23389C9.21139 8.10722 4.43745 8.40279 0 9.14173L3.00737 0.274473C5.17352 1.14009 8.39119 1.56234 12.6183 1.56234H22.4186L22.4396 1.58344ZM86.8983 48.5166L84.3325 55.0826H68.2231C63.1548 55.0826 59.9581 55.146 58.6122 55.2726L52.6395 55.7582L55.2052 48.6222C56.3829 48.3055 59.5375 48.1366 64.669 48.1366H80.1895L79.6007 33.5689C79.3273 28.2275 79.0329 24.4483 78.7174 22.2104C78.0865 18.6002 77.0349 15.75 75.5628 13.6809C72.9971 10.0707 69.0013 8.25501 63.5754 8.25501C58.1495 8.25501 54.385 9.73288 51.7562 12.6675C48.4123 16.4678 46.0569 23.3927 44.711 33.4423C43.365 43.4918 42.8603 50.5857 43.1757 54.7026L35.1841 56.3916C35.5837 46.3631 36.7194 37.4537 38.6331 29.6842C39.0958 28.0164 39.7057 25.7573 40.4628 22.8649C40.8624 21.0492 40.9255 19.2546 40.6521 17.5023L39.4113 10.0285C39.2851 9.28952 38.6752 8.93061 37.5816 8.93061L28.7067 9.16285L31.8192 0C34.2588 1.05563 37.7499 1.58344 42.3135 1.58344H46.4565C46.3303 3.52579 46.4565 6.08042 46.793 9.2473L47.2977 13.2798H47.9917C48.2441 12.0342 48.9171 10.4929 49.9686 8.65615C51.0201 6.81936 51.9455 5.57371 52.7236 4.89811C55.773 2.42794 59.9792 1.20341 65.342 1.20341C71.7563 1.20341 76.6564 2.93465 80.0844 6.376C83.9961 10.4296 85.9519 16.8267 85.9519 25.5462V38.4037C85.9519 42.964 86.2674 46.342 86.8983 48.5166ZM171.168 1.85791L169.149 8.71949L163.576 9.54288C163.176 9.60621 163.008 9.9229 163.092 10.4929C163.344 14.1665 162.104 18.2624 159.349 22.7804C158.465 24.2794 156.678 26.3485 154.028 28.9664C153.334 29.642 153.229 30.2543 153.691 30.8454L160.695 39.2904C163.029 42.0984 166.205 46.0042 170.263 50.9868L166.12 56.8772H165.321C162.44 51.2613 156.194 43.3018 146.646 32.9989L135.857 21.197C134.785 20.0358 134.07 19.4658 133.733 19.4658C133.334 19.4658 132.829 19.7613 132.198 20.3314C128.35 23.7516 126.436 27.383 126.436 31.2043C126.436 35.8069 128.728 41.3384 133.334 47.7988C133.67 48.3477 133.754 48.8333 133.628 49.2978L132.009 54.9137C126.562 54.6604 122.209 54.787 118.991 55.2938L115.332 55.7793L115.037 55.4838L116.951 50.2056C119.454 49.6567 122.377 49.2345 125.721 48.9178C122.314 43.0907 120.589 37.9181 120.589 33.3789C120.589 29.9798 121.662 26.834 123.786 23.8783C125.531 21.5137 127.887 19.2758 130.894 17.1645C131.147 16.9745 131.147 16.7211 130.894 16.4045C125.826 10.9152 120.989 7.34716 116.341 5.7215V5.15146L123.008 0.0211171H123.407C127.13 2.89242 131.588 7.15716 136.825 12.7731C140.211 16.2567 144.69 20.9648 150.284 26.9185C150.621 27.3407 151.084 27.1719 151.672 26.4329C154.848 22.506 156.446 18.5157 156.446 14.441C156.446 13.6809 156.383 12.9842 156.257 12.372C155.689 9.88067 154.322 7.9172 152.114 6.48155L156.257 0.295574H156.446C158.844 1.73123 161.22 2.38572 163.597 2.25904L171.189 1.87901L171.168 1.85791ZM232.325 48.5166L229.759 55.0826H213.649C208.581 55.0826 205.384 55.146 204.038 55.2726L198.066 55.7582L200.632 48.6222C201.809 48.3055 204.964 48.1366 210.095 48.1366H225.616L225.027 33.5689C224.775 28.2275 224.459 24.4483 224.144 22.2104C223.513 18.6002 222.461 15.75 220.989 13.6809C218.423 10.0707 214.428 8.25501 209.002 8.25501C203.576 8.25501 199.79 9.73288 197.183 12.6675C193.839 16.4678 191.483 23.3927 190.137 33.4423C188.791 43.4918 188.287 50.5857 188.602 54.7026L180.61 56.3916C181.01 46.3631 182.167 37.4537 184.059 29.6842C184.522 28.0164 185.132 25.7573 185.889 22.8649C186.289 21.0492 186.352 19.2546 186.099 17.5023L184.859 10.0285C184.732 9.28952 184.123 8.93061 183.029 8.93061L174.154 9.16285L177.267 0C179.706 1.05563 183.197 1.58344 187.761 1.58344H191.904C191.778 3.52579 191.904 6.08042 192.24 9.2473L192.745 13.2798H193.439C193.691 12.0342 194.364 10.4929 195.416 8.65615C196.467 6.81936 197.393 5.57371 198.171 4.89811C201.22 2.42794 205.427 1.20341 210.789 1.20341C217.204 1.20341 222.104 2.93465 225.532 6.376C229.443 10.4296 231.399 16.8267 231.399 25.5462V38.4037C231.399 42.964 231.715 46.342 232.346 48.5166M282.314 1.58344C281.431 6.35487 280.989 10.3451 280.989 13.5754V42.0562C280.989 45.2442 281.326 49.4456 282.02 54.6181L274.323 56.286V8.44502C269.191 8.31834 264.375 8.55059 259.875 9.16285L262.987 0.295574C263.681 0.548925 265.532 0.844501 268.56 1.20341C271.315 1.45676 273.439 1.58344 274.911 1.58344H282.314ZM345.784 1.87901L343.766 8.74059L338.192 9.56399C337.793 9.62733 337.625 9.94401 337.688 10.5141C337.94 14.1876 336.699 18.2835 333.944 22.8015C333.061 24.3005 331.273 26.3696 328.624 28.9875C327.93 29.6631 327.824 30.2754 328.287 30.8665L335.29 39.3116C337.625 42.1195 340.8 46.0253 344.859 51.0079L340.716 56.8983H339.938C337.036 51.2824 330.811 43.3229 321.263 33.02L310.474 21.2181C309.402 20.0569 308.687 19.4869 308.35 19.4869C307.951 19.4869 307.446 19.7824 306.815 20.3525C302.966 23.7727 301.052 27.4041 301.052 31.2254C301.052 35.828 303.345 41.3595 307.95 47.8199C308.287 48.3688 308.371 48.8544 308.245 49.3189L306.626 54.9348C301.179 54.6815 296.825 54.8082 293.608 55.3149L289.969 55.8004L289.675 55.5049L291.589 50.2267C294.091 49.6778 297.015 49.2556 300.358 48.9389C296.931 43.1118 295.227 37.9392 295.227 33.4C295.227 30.0009 296.3 26.8552 298.424 23.8994C300.169 21.5348 302.525 19.2969 305.532 17.1856C305.784 16.9956 305.784 16.7423 305.532 16.4256C300.464 10.9363 295.627 7.36828 290.979 5.74261V5.17258L297.646 0.0422341H298.045C301.768 2.91354 306.226 7.17827 311.463 12.7942C314.849 16.2778 319.328 20.9859 324.922 26.9396C325.259 27.3619 325.7 27.193 326.31 26.454C329.507 22.5271 331.084 18.5368 331.084 14.4621C331.084 13.7021 331.021 13.0053 330.895 12.3931C330.327 9.90179 328.96 7.93832 326.752 6.50267L330.895 0.316691H331.084C333.482 1.75234 335.858 2.40683 338.235 2.28016L345.827 1.90013L345.784 1.87901ZM104.879 26.264C102.797 26.264 101.136 27.8897 101.136 29.8954C101.136 31.9011 102.797 33.5478 104.879 33.5478C106.961 33.5478 108.602 31.9222 108.602 29.8954C108.602 27.8686 106.94 26.264 104.879 26.264ZM251.736 26.264C249.654 26.264 248.013 27.8897 248.013 29.8954C248.013 31.9011 249.654 33.5478 251.736 33.5478C253.818 33.5478 255.458 31.9222 255.458 29.8954C255.458 27.8686 253.797 26.264 251.736 26.264Z" fill="white"/>
<path d="M334.638 75.9418H11.1252V77.1452H334.638V75.9418Z" fill="white"/>
<path d="M109.99 225.017V210.788H107.634V207.41H113.46V225.017H109.99ZM121.494 225.017H117.897V221.639H120.715C120.989 221.639 121.451 221.217 121.451 220.943V210.788H118.696V207.41H124.922V221.724C124.922 223.265 123.071 225.017 121.473 225.017M131.441 225.017V210.788H129.086V207.41H134.911V225.017H131.441ZM150.516 225.017L143.534 213.828V225.017H140.021V214.44C140.021 213.68 140.274 213.152 140.884 212.667L142.125 211.738L139.433 207.431H143.428L150.474 218.768V207.431H153.986V217.269C153.986 218.494 153.544 219.021 152.619 219.613L151.567 220.309L154.49 225.039H150.516V225.017ZM180.253 225.017V210.788H174.364V221.724C174.364 223.265 172.514 225.017 170.915 225.017H168.097V221.639H170.137C170.411 221.639 170.894 221.217 170.894 220.943V210.788H168.665V207.41H183.744V225.017H180.253ZM190.116 215.918V210.788H187.761V207.41H193.586V215.918H190.116ZM199.811 215.918V210.788H197.456V207.41H203.281V215.918H199.811ZM215.647 225.017V210.788H207.004V207.41H219.117V225.017H215.647ZM230.074 225.017L234.238 210.788H223.786V207.41H238.15V210.154L233.776 225.017H230.074ZM223.765 214.905H227.235V230H223.765V214.905Z" fill="white"/>
<path d="M276.278 185.157H178.402C178.108 182.433 175.752 180.322 172.892 180.322C170.032 180.322 167.656 182.455 167.34 185.157H69.4429V186.36H167.34C167.656 189.042 170.011 191.132 172.871 191.132C175.731 191.132 178.045 189.042 178.36 186.36H276.236V185.157H276.278ZM172.892 189.928C170.474 189.928 168.518 188.049 168.518 185.727C168.518 183.405 170.474 181.526 172.892 181.526C175.311 181.526 177.225 183.405 177.225 185.727C177.225 188.049 175.269 189.928 172.892 189.928Z" fill="white"/>
<path d="M28.1179 110.841V103.24H24.8161V100.812H30.5784V110.841H28.1179Z" fill="white"/>
<path d="M35.6258 121.735V119.286H46.6247V103.24H35.6258V100.812H49.0012V119.286H51.1463V121.735H35.6258Z" fill="white"/>
<path d="M68.4334 121.735V103.24H56.0044V100.833H70.873V121.735H68.4334ZM56.0044 109.447H58.4439V121.735H56.0044V109.447Z" fill="white"/>
<path d="M78.9908 121.735V103.24H76.1096V100.812H81.4303V121.735H78.9908Z" fill="white"/>
<path d="M86.4987 100.812H89.4009L97.8131 114.177L99.4325 112.741C99.7269 112.445 99.9372 112.129 99.9372 111.58V100.791H102.377V111.453C102.377 112.678 102.061 113.501 101.115 114.198L98.8436 115.866L102.545 121.693H99.6428L89.7584 105.985V121.693H87.382V107.463C87.382 106.492 87.5502 106.048 88.2442 105.478L89.0434 104.782L86.4987 100.791V100.812Z" fill="white"/>
<path d="M115.079 121.735H112.535L118.36 103.24H106.541V94.6264H108.98V100.812H121.052V102.734L115.079 121.735Z" fill="white"/>
<path d="M146.415 100.812C148.497 100.812 150.894 103.198 150.894 105.309V121.714H136.131V100.812H146.415ZM138.591 103.219V119.265H148.476V105.267C148.476 104.401 147.298 103.219 146.457 103.219H138.591Z" fill="white"/>
<path d="M159.159 110.841V103.24H155.857V100.812H161.599V110.841H159.159Z" fill="white"/>
<path d="M177.561 121.735V103.24H166.457V100.812H179.958V121.735H177.561Z" fill="white"/>
<path d="M187.971 121.735V103.24H185.09V100.812H190.411V121.735H187.971Z" fill="white"/>
<path d="M202.735 121.735L201.914 117.47L199.075 121.08C198.676 121.587 198.276 121.735 197.561 121.735H195.122V119.286H197.813L201.262 114.916V103.24H197.098V100.833H203.66V115.697L204.817 121.756H202.735V121.735Z" fill="white"/>
<path d="M216.026 103.24L212.177 121.735H209.78L213.166 105.394C213.376 104.359 213.628 104.021 214.743 103.24H209.822V100.833H221.284C223.408 100.833 225.763 103.219 225.763 105.33V121.735H216.993V119.286H223.345V105.288C223.345 104.423 222.167 103.24 221.305 103.24H216.026Z" fill="white"/>
<path d="M242.419 119.286C243.176 119.286 244.039 118.42 244.039 117.66V103.24H241.136V100.833H258.508V121.735H256.068V103.24H246.478V118.272C246.478 119.856 244.606 121.735 243.029 121.735H240.8V119.286H242.419Z" fill="white"/>
<path d="M266.71 110.841V103.24H263.408V100.812H269.149V110.841H266.71Z" fill="white"/>
<path d="M277.014 110.841V103.24H273.713V100.812H279.454V110.841H277.014Z" fill="white"/>
<path d="M287.277 121.735V103.24H284.417V100.812H289.717V121.735H287.277Z" fill="white"/>
<path d="M298.024 121.735V103.24H295.143V100.812H300.464V121.735H298.024Z" fill="white"/>
<path d="M308.623 103.24V121.735H306.184V100.833H316.447C318.529 100.833 320.947 103.219 320.947 105.33V121.735H318.508V105.288C318.508 104.423 317.33 103.24 316.489 103.24H308.623Z" fill="white"/>
<path d="M65.6364 142.066V160.561H63.1968V139.659H73.4597C75.5418 139.659 77.9393 142.045 77.9393 144.156V160.561H75.4997V144.114C75.4997 143.249 74.322 142.066 73.4808 142.066H65.6153H65.6364Z" fill="white"/>
<path d="M85.9519 160.561V142.066H83.0707V139.638H88.3914V160.561H85.9519Z" fill="white"/>
<path d="M104.795 160.561V142.066H93.6911V139.638H107.193V160.561H104.795Z" fill="white"/>
<path d="M115.247 149.667V142.066H111.946V139.638H117.687V149.667H115.247Z" fill="white"/>
<path d="M122.293 139.638H125.195L133.607 153.024L135.227 151.588C135.521 151.292 135.731 150.976 135.731 150.427V139.638H138.171V150.3C138.171 151.525 137.855 152.348 136.909 153.045L134.638 154.713L138.339 160.561H135.437L125.552 144.853V160.561H123.176V146.331C123.176 145.36 123.365 144.916 124.038 144.346L124.837 143.65L122.293 139.638Z" fill="white"/>
<path d="M155.878 160.561V142.066H143.449V139.659H158.318V160.561H155.878ZM143.449 148.273H145.889V160.561H143.449V148.273Z" fill="white"/>
<path d="M166.436 160.561V142.066H163.555V139.638H168.875V160.561H166.436Z" fill="white"/>
<path d="M192.409 160.561H189.864L195.668 142.066H183.849V133.452H186.31V139.638H198.36V141.56L192.409 160.561Z" fill="white"/>
<path d="M205.763 160.561V142.066H202.903V139.638H208.203V160.561H205.763Z" fill="white"/>
<path d="M228.076 158.112C228.939 158.112 230.095 156.951 230.095 156.085V139.638H232.43V156.043C232.43 158.133 230.011 160.54 227.95 160.54H214.007V139.638H216.341V158.091H228.076V158.112ZM224.333 151.841C224.333 152.601 224.123 153.129 223.618 153.615L222.188 154.882L221.178 153.974L222.083 152.179V139.659H224.354V151.841H224.333Z" fill="white"/>
<path d="M240.358 149.667V142.066H237.056V139.638H242.798V149.667H240.358Z" fill="white"/>
<path d="M247.866 160.561V158.112H258.865V142.066H247.866V139.638H261.221V158.112H263.387V160.561H247.866Z" fill="white"/>
<path d="M280.653 160.561V142.066H268.224V139.659H283.092V160.561H280.653ZM268.224 148.273H270.663V160.561H268.224V148.273Z" fill="white"/>
</svg>
