<svg width="80" height="49" viewBox="0 0 80 49" fill="none" xmlns="http://www.w3.org/2000/svg">
<path d="M55.6556 10.7588L29.2095 11.7893C29.3408 11.6867 29.477 11.5842 29.6181 11.4816C31.2187 11.4523 32.4982 11.423 32.7998 11.4132C34.1377 11.3595 34.6291 10.583 36.4048 10.5097C38.1756 10.4413 43.7558 10.2216 44.7969 10.1825C46.918 10.0995 45.9061 10.9004 47.8618 10.8223C48.8057 10.7832 52.3376 10.5927 55.7431 10.4071C55.7139 10.5244 55.6848 10.6367 55.6556 10.7539M48.324 0.810163C48.11 0.89319 47.891 0.981102 47.6721 1.0739L56.7891 0.717368C56.7697 0.590385 56.7453 0.47317 56.7161 0.365723C53.2133 0.561081 49.4089 0.766207 48.324 0.810163ZM53.2231 18.5682C51.2673 18.6757 49.6619 18.7587 49.0732 18.7783C47.1126 18.8564 48.1246 18.0554 46.0083 18.1385C44.9672 18.1775 38.2097 18.4413 36.4388 18.5145C34.6631 18.5829 34.1766 19.3643 32.8339 19.4132C32.2063 19.4376 27.278 19.5255 24.1499 19.5841C24.2228 19.7111 24.3104 19.843 24.4126 19.9797L53.116 18.8613C53.155 18.7636 53.189 18.6659 53.2279 18.5731M56.1323 8.7466C56.1567 8.63427 56.181 8.52194 56.2004 8.41449C53.0674 8.58543 50.0073 8.75148 49.1365 8.78567C47.1807 8.86381 48.1927 8.06284 46.0715 8.14587C45.0304 8.18494 39.3384 8.40961 37.5675 8.47798C35.7967 8.54636 35.3053 9.32779 33.9626 9.37663C33.7874 9.38151 33.2815 9.39617 32.5712 9.41082C32.4349 9.50361 32.2987 9.59641 32.1625 9.68432L56.1275 8.75148L56.1323 8.7466ZM54.6096 14.4853C51.7101 14.6464 49.0003 14.7881 48.1878 14.8174C46.2272 14.8955 47.2391 14.0945 45.1229 14.1776C44.0817 14.2166 37.5481 14.4706 35.7772 14.5439C34.0063 14.6122 33.515 15.3937 32.1771 15.4425C31.6468 15.462 28.071 15.5304 25.0839 15.5841C24.9769 15.716 24.8796 15.843 24.7872 15.97L54.5123 14.8125C54.5464 14.705 54.5804 14.5976 54.6096 14.4853ZM55.1058 12.7856C55.1399 12.6733 55.1691 12.561 55.2031 12.4486C52.0409 12.6196 48.937 12.7905 48.0613 12.8247C46.1007 12.9028 47.1126 12.1019 44.9964 12.1849C43.9553 12.224 37.4799 12.4779 35.7042 12.5463C33.9334 12.6147 33.442 13.3961 32.0993 13.445C31.6906 13.4596 29.4527 13.5036 27.0786 13.5475C26.9472 13.6647 26.8207 13.782 26.6991 13.8943L55.1107 12.7856H55.1058ZM56.901 2.35838C53.2717 2.55862 49.2484 2.7784 48.2316 2.81747C46.2759 2.89561 47.278 2.09953 45.1812 2.17767C44.4807 2.50978 43.7461 2.86631 42.9774 3.26191L56.8913 2.71979C56.8913 2.59769 56.8913 2.48048 56.8961 2.36326M50.236 6.74417C48.2754 6.82232 49.2873 6.02135 47.171 6.10438C46.1299 6.14345 40.2141 6.37299 38.4432 6.44625C37.6308 6.48044 37.0907 6.65626 36.6091 6.85162C36.434 6.95907 36.2588 7.06163 36.0788 7.17396C35.8648 7.30583 35.6556 7.43281 35.4512 7.56468L56.4972 6.74417C56.5167 6.63673 56.5313 6.52928 56.5459 6.42183C53.6852 6.57812 51.0338 6.71975 50.236 6.74906M50.4403 4.74175C48.4797 4.81989 49.4916 4.01892 47.3753 4.10195C46.6651 4.13126 43.4688 4.25336 40.9341 4.35592C40.3162 4.69291 39.6789 5.04944 39.027 5.42551L56.7648 4.73198C56.7745 4.62454 56.7891 4.51709 56.7988 4.40964C53.9236 4.56593 51.2479 4.70756 50.4452 4.74175M49.4916 20.7807C47.531 20.8588 48.5429 20.0579 46.4267 20.1409C45.3856 20.18 39.2459 20.4193 37.4751 20.4925C35.7042 20.5609 35.2129 21.3423 33.8701 21.3912C33.2912 21.4156 29.0878 21.4888 25.984 21.5475C26.1396 21.6696 26.3002 21.7917 26.4705 21.9186L52.2841 20.9125C52.323 20.8197 52.362 20.7318 52.4009 20.639C51.029 20.7123 49.9538 20.766 49.4916 20.7856M49.2873 26.7879C49.0197 26.8026 48.8057 26.8124 48.6548 26.8173C46.6942 26.8954 47.7062 26.0944 45.5899 26.1775C44.6996 26.2116 38.5502 26.451 35.6848 26.5633C36.5069 26.8905 37.2999 27.1933 38.0637 27.4668L49.0781 27.037C49.1511 26.9589 49.2192 26.871 49.2873 26.7879ZM49.1754 22.7978C47.2148 22.8759 48.2267 22.0749 46.1104 22.158C45.0693 22.197 39.1535 22.4315 37.3826 22.4998C35.6118 22.5682 35.1204 23.3496 33.7777 23.3985C33.3787 23.4131 31.2673 23.4571 28.9808 23.4962C29.1608 23.5938 29.3457 23.6964 29.5403 23.799L51.3695 22.9492C51.4133 22.8612 51.4522 22.7733 51.4911 22.6854C50.4062 22.744 49.5695 22.7831 49.1803 22.7978M53.8604 16.8491C53.8944 16.7465 53.9334 16.6391 53.9674 16.5365C51.3257 16.6782 48.9613 16.8051 48.217 16.8344C46.2564 16.9126 47.2683 16.1116 45.152 16.1946C44.1109 16.2337 37.3535 16.4974 35.5826 16.5658C33.8117 16.6342 33.3204 17.4156 31.9776 17.4645C31.389 17.4889 27.0445 17.567 23.9261 17.6208C23.8871 17.7624 23.858 17.8943 23.8385 18.0164L53.8652 16.8442L53.8604 16.8491ZM49.0878 24.8002C47.1272 24.8783 48.1391 24.0774 46.0229 24.1604C44.9818 24.1994 39.2897 24.4241 37.5189 24.4925C35.748 24.5609 35.2566 25.3423 33.9139 25.3911C33.7728 25.396 33.4225 25.4058 32.9263 25.4156C33.1014 25.4937 33.2815 25.567 33.4615 25.6451L50.3965 24.9858C50.4354 24.8979 50.4792 24.8148 50.5181 24.7318C49.8614 24.766 49.3651 24.7904 49.0878 24.8002Z" fill="#C79A79"/>
<path d="M5.19095 35.8379C5.00122 37.0785 4.90392 37.9039 4.90392 38.3092V40.2384C4.90392 40.8733 4.9623 41.5473 5.08392 42.2555L3.07954 42.9197C3.29847 41.7231 3.41036 40.6828 3.41036 39.8037C3.41036 38.822 3.38117 38.0113 3.31793 37.3764C2.13087 37.3471 1.02651 37.4155 0 37.5864L0.695695 35.5351C1.19679 35.7354 1.94113 35.8331 2.919 35.8331H5.18609L5.19095 35.8379ZM20.1022 46.695L19.5086 48.2139H15.782C14.6096 48.2139 13.8701 48.2286 13.5587 48.2579L12.1771 48.3702L12.7706 46.7194C13.0431 46.6462 13.7728 46.6071 14.9599 46.6071H18.5502L18.414 43.2371C18.3508 42.0015 18.2827 41.1273 18.2097 40.6096C18.0637 39.7744 17.8205 39.1151 17.4799 38.6365C16.8864 37.8013 15.9621 37.3813 14.7069 37.3813C13.4517 37.3813 12.5809 37.7232 11.9728 38.402C11.1992 39.2811 10.6543 40.8831 10.343 43.2078C10.0316 45.5326 9.91486 47.1736 9.98784 48.126L8.13914 48.5167C8.23157 46.1968 8.49428 44.1358 8.937 42.3385C9.04403 41.9527 9.18511 41.4301 9.36025 40.761C9.45269 40.341 9.46728 39.9258 9.40404 39.5205L9.117 37.7915C9.08781 37.6206 8.94673 37.5376 8.69375 37.5376L6.64072 37.5913L7.36074 35.4716C7.92508 35.7158 8.73267 35.8379 9.78837 35.8379H10.7468C10.7176 36.2873 10.7468 36.8782 10.8246 37.6108L10.9414 38.5437H11.1019C11.1603 38.2555 11.316 37.899 11.5592 37.4741C11.8025 37.0492 12.0165 36.761 12.1965 36.6047C12.902 36.0333 13.875 35.75 15.1155 35.75C16.5994 35.75 17.7329 36.1505 18.5259 36.9466C19.4308 37.8843 19.8832 39.3642 19.8832 41.3812V44.3556C19.8832 45.4105 19.9562 46.1919 20.1022 46.695ZM39.5962 35.9014L39.1292 37.4887L37.8399 37.6792C37.7475 37.6939 37.7086 37.7671 37.728 37.899C37.7864 38.7488 37.4994 39.6963 36.8621 40.7414C36.6577 41.0882 36.2442 41.5668 35.6312 42.1724C35.4707 42.3287 35.4464 42.4704 35.5534 42.6071L37.1734 44.5607C37.7135 45.2103 38.4481 46.1138 39.387 47.2664L38.4286 48.629H38.2437C37.5772 47.3299 36.1323 45.4887 33.9236 43.1053L31.4279 40.3751C31.1798 40.1065 31.0144 39.9747 30.9365 39.9747C30.8441 39.9747 30.7273 40.043 30.5814 40.1749C29.6911 40.9661 29.2484 41.8062 29.2484 42.6901C29.2484 43.7549 29.7786 45.0344 30.8441 46.5289C30.9219 46.6559 30.9414 46.7683 30.9122 46.8757L30.5376 48.1748C29.2775 48.1162 28.2705 48.1455 27.5261 48.2627L26.6796 48.3751L26.6115 48.3067L27.0542 47.0857C27.6332 46.9587 28.3094 46.861 29.0829 46.7878C28.2948 45.4398 27.8959 44.2432 27.8959 43.1932C27.8959 42.4069 28.144 41.6792 28.6354 40.9954C29.0392 40.4484 29.584 39.9307 30.2797 39.4423C30.3381 39.3984 30.3381 39.3397 30.2797 39.2665C29.1073 37.9967 27.9883 37.1713 26.9132 36.7952V36.6633L28.4554 35.4765H28.5478C29.4089 36.1408 30.4403 37.1273 31.6517 38.4264C32.4349 39.2323 33.4712 40.3214 34.7653 41.6987C34.8431 41.7964 34.9501 41.7573 35.0864 41.5864C35.821 40.678 36.1907 39.7549 36.1907 38.8123C36.1907 38.6365 36.1761 38.4753 36.1469 38.3337C36.0156 37.7573 35.6993 37.3031 35.1885 36.971L36.1469 35.54H36.1907C36.7453 35.8721 37.2951 36.0235 37.8448 35.9942L39.6011 35.9063L39.5962 35.9014ZM53.7436 46.695L53.1501 48.2139H49.4235C48.251 48.2139 47.5116 48.2286 47.2002 48.2579L45.8185 48.3702L46.4121 46.7194C46.6845 46.6462 47.4143 46.6071 48.6013 46.6071H52.1917L52.0555 43.2371C51.9971 42.0015 51.9241 41.1273 51.8511 40.6096C51.7052 39.7744 51.4619 39.1151 51.1214 38.6365C50.5279 37.8013 49.6035 37.3813 48.3483 37.3813C47.0932 37.3813 46.2175 37.7232 45.6142 38.402C44.8407 39.2811 44.2958 40.8831 43.9844 43.2078C43.6731 45.5326 43.5563 47.1736 43.6293 48.126L41.7806 48.5167C41.873 46.1968 42.1406 44.1358 42.5784 42.3385C42.6855 41.9527 42.8266 41.4301 43.0017 40.761C43.0941 40.341 43.1087 39.9258 43.0504 39.5205L42.7633 37.7915C42.7341 37.6206 42.593 37.5376 42.3401 37.5376L40.287 37.5913L41.0071 35.4716C41.5714 35.7158 42.379 35.8379 43.4347 35.8379H44.3931C44.3639 36.2873 44.3931 36.8782 44.4709 37.6108L44.5877 38.5437H44.7482C44.8066 38.2555 44.9623 37.899 45.2055 37.4741C45.4488 37.0492 45.6629 36.761 45.8429 36.6047C46.5483 36.0333 47.5213 35.75 48.7619 35.75C50.2457 35.75 51.3792 36.1505 52.1722 36.9466C53.0771 37.8843 53.5296 39.3642 53.5296 41.3812V44.3556C53.5296 45.4105 53.6025 46.1919 53.7485 46.695M65.3077 35.8379C65.1034 36.9417 65.0012 37.8648 65.0012 38.612V45.2005C65.0012 45.938 65.0791 46.9099 65.2396 48.1065L63.459 48.4923V37.4252C62.272 37.3959 61.1579 37.4497 60.1168 37.5913L60.8368 35.54C60.9973 35.5986 61.4254 35.667 62.126 35.75C62.7633 35.8086 63.2547 35.8379 63.5952 35.8379H65.3077ZM79.9903 35.9063L79.5232 37.4936L78.234 37.6841C78.1416 37.6987 78.1027 37.772 78.1173 37.9039C78.1756 38.7537 77.8886 39.7012 77.2513 40.7463C77.0469 41.0931 76.6334 41.5717 76.0204 42.1773C75.8599 42.3336 75.8356 42.4753 75.9426 42.612L77.5626 44.5656C78.1027 45.2151 78.8373 46.1187 79.7762 47.2713L78.8178 48.6339H78.6378C77.9664 47.3348 76.5264 45.4935 74.3177 43.1102L71.8219 40.38C71.5738 40.1114 71.4084 39.9795 71.3306 39.9795C71.2381 39.9795 71.1214 40.0479 70.9754 40.1798C70.0851 40.971 69.6424 41.811 69.6424 42.695C69.6424 43.7597 70.1727 45.0393 71.2381 46.5338C71.316 46.6608 71.3354 46.7731 71.3063 46.8806L70.9316 48.1797C69.6716 48.1211 68.6646 48.1504 67.9202 48.2676L67.0786 48.38L67.0105 48.3116L67.4532 47.0906C68.0321 46.9636 68.7084 46.8659 69.4819 46.7927C68.6889 45.4447 68.2948 44.2481 68.2948 43.1981C68.2948 42.4118 68.5429 41.684 69.0343 41.0003C69.4381 40.4533 69.983 39.9356 70.6787 39.4472C70.737 39.4032 70.737 39.3446 70.6787 39.2714C69.5062 38.0015 68.3873 37.1762 67.3121 36.8001V36.6682L68.8543 35.4814H68.9467C69.8078 36.1456 70.8392 37.1322 72.0506 38.4313C72.8339 39.2372 73.8701 40.3263 75.1642 41.7036C75.242 41.8013 75.3442 41.7622 75.4853 41.5913C76.2248 40.6828 76.5896 39.7598 76.5896 38.8172C76.5896 38.6413 76.575 38.4802 76.5459 38.3385C76.4145 37.7622 76.0983 37.308 75.5874 36.9759L76.5459 35.5449H76.5896C77.1442 35.877 77.694 36.0284 78.2437 35.9991L80 35.9112L79.9903 35.9063ZM24.2617 41.5473C23.7801 41.5473 23.3958 41.9234 23.3958 42.3873C23.3958 42.8513 23.7801 43.2323 24.2617 43.2323C24.7434 43.2323 25.1228 42.8562 25.1228 42.3873C25.1228 41.9185 24.7385 41.5473 24.2617 41.5473ZM58.234 41.5473C57.7524 41.5473 57.3729 41.9234 57.3729 42.3873C57.3729 42.8513 57.7524 43.2323 58.234 43.2323C58.7156 43.2323 59.0951 42.8562 59.0951 42.3873C59.0951 41.9185 58.7108 41.5473 58.234 41.5473Z" fill="#C79A79"/>
</svg>
