<svg width="14" height="14" viewBox="0 0 14 14" fill="none" xmlns="http://www.w3.org/2000/svg">
<g clip-path="url(#clip0_3729_15419)">
<path d="M8.15334 4.00854L4.97162 6.05386" stroke="#2A2A2A" stroke-linecap="round" stroke-linejoin="round"/>
<path d="M4.97162 7.94604L8.15334 9.99136" stroke="#2A2A2A" stroke-linecap="round" stroke-linejoin="round"/>
<path d="M3.5 8.75C4.4665 8.75 5.25 7.9665 5.25 7C5.25 6.0335 4.4665 5.25 3.5 5.25C2.5335 5.25 1.75 6.0335 1.75 7C1.75 7.9665 2.5335 8.75 3.5 8.75Z" stroke="#2A2A2A" stroke-linecap="round" stroke-linejoin="round"/>
<path d="M9.625 12.6875C10.5915 12.6875 11.375 11.904 11.375 10.9375C11.375 9.971 10.5915 9.1875 9.625 9.1875C8.6585 9.1875 7.875 9.971 7.875 10.9375C7.875 11.904 8.6585 12.6875 9.625 12.6875Z" stroke="#2A2A2A" stroke-linecap="round" stroke-linejoin="round"/>
<path d="M9.625 4.8125C10.5915 4.8125 11.375 4.029 11.375 3.0625C11.375 2.096 10.5915 1.3125 9.625 1.3125C8.6585 1.3125 7.875 2.096 7.875 3.0625C7.875 4.029 8.6585 4.8125 9.625 4.8125Z" stroke="#2A2A2A" stroke-linecap="round" stroke-linejoin="round"/>
</g>
<defs>
<clipPath id="clip0_3729_15419">
<rect width="14" height="14" fill="white"/>
</clipPath>
</defs>
</svg>
