<svg width="24" height="24" viewBox="0 0 24 24" fill="none" xmlns="http://www.w3.org/2000/svg">
<path d="M14.25 19.5004V15.0004C14.25 14.8014 14.171 14.6107 14.0303 14.47C13.8897 14.3294 13.6989 14.2504 13.5 14.2504H10.5C10.3011 14.2504 10.1103 14.3294 9.96967 14.47C9.82902 14.6107 9.75 14.8014 9.75 15.0004V19.5004C9.75 19.6993 9.67098 19.89 9.53033 20.0307C9.38968 20.1713 9.19891 20.2504 9 20.2504H4.5C4.30109 20.2504 4.11032 20.1713 3.96967 20.0307C3.82902 19.89 3.75 19.6993 3.75 19.5004V10.8322C3.75001 10.7277 3.77187 10.6243 3.81416 10.5288C3.85646 10.4332 3.91827 10.3475 3.99562 10.2772L11.4956 3.19535C11.6337 3.06966 11.8137 3 12.0005 3C12.1872 3 12.3672 3.06966 12.5053 3.19535L20.0053 10.2772C20.0827 10.3475 20.1445 10.4332 20.1868 10.5288C20.2291 10.6243 20.2509 10.7277 20.2509 10.8322V19.5004C20.2509 19.6993 20.1719 19.89 20.0313 20.0307C19.8906 20.1713 19.6998 20.2504 19.5009 20.2504H15C14.8011 20.2504 14.6103 20.1713 14.4697 20.0307C14.329 19.89 14.25 19.6993 14.25 19.5004Z" stroke="white" stroke-linecap="round" stroke-linejoin="round"/>
</svg>
