<svg width="17" height="14" viewBox="0 0 17 14" fill="none" xmlns="http://www.w3.org/2000/svg">
<path d="M8.8296 8.11417C8.88831 8.061 8.9589 8.02429 9.03496 8.00737C9.11102 7.99044 9.19015 7.99384 9.26518 8.01725L12.1659 8.9734C12.2634 9.00361 12.3495 9.06615 12.4112 9.15165C12.4729 9.23716 12.5069 9.34104 12.5082 9.44774C12.5067 10.1708 12.256 10.8649 11.8027 11.4011C11.3494 11.9374 10.7245 12.2791 10.044 12.3628C7.94892 12.6224 5.83015 11.9928 4.15378 10.6126C2.47741 9.23242 1.38077 7.21465 1.1051 5.00321C1.01505 4.28508 1.17516 3.56058 1.55565 2.96445C1.93613 2.36832 2.51109 1.94113 3.17361 1.76233C3.27174 1.73747 3.37532 1.7469 3.46884 1.78918C3.56236 1.83146 3.64079 1.90434 3.69239 1.99689L5.28045 4.73871C5.31987 4.8093 5.34226 4.88883 5.34561 4.9702C5.34896 5.05158 5.33318 5.13228 5.29967 5.20513L4.2526 6.91681C4.21732 6.9924 4.20138 7.07661 4.20634 7.16122C4.2113 7.24583 4.237 7.32795 4.28093 7.39954C4.89068 8.37802 6.0393 9.31215 7.08816 9.69211C7.16493 9.71938 7.24683 9.72519 7.3258 9.70897C7.40476 9.69274 7.47806 9.65504 7.53846 9.59959L8.8296 8.11417Z" stroke="white" stroke-linecap="round" stroke-linejoin="round"/>
<path d="M16.2265 6.66546C16.2901 6.61084 16.3257 6.53674 16.3257 6.45949V1.50757H8.19531V4.08652" stroke="white" stroke-linecap="round" stroke-linejoin="round"/>
<path d="M16.3257 1.50757L12.2605 5.19178L8.19531 1.50757" stroke="white" stroke-linecap="round" stroke-linejoin="round"/>
</svg>
