<svg width="36" height="36" viewBox="0 0 36 36" fill="none" xmlns="http://www.w3.org/2000/svg">
<path fill-rule="evenodd" clip-rule="evenodd" d="M15.6361 24.0723C20.2953 24.0723 24.0723 20.2953 24.0723 15.6361C24.0723 10.977 20.2953 7.2 15.6361 7.2C10.977 7.2 7.2 10.977 7.2 15.6361C7.2 20.2953 10.977 24.0723 15.6361 24.0723ZM15.6361 25.2723C20.958 25.2723 25.2723 20.958 25.2723 15.6361C25.2723 10.3142 20.958 6 15.6361 6C10.3142 6 6 10.3142 6 15.6361C6 20.958 10.3142 25.2723 15.6361 25.2723Z" fill="#2A2A2A"/>
<path fill-rule="evenodd" clip-rule="evenodd" d="M29.1726 30L21.6014 22.4287L22.4288 21.6014L30 29.1726L29.1726 30Z" fill="#2A2A2A"/>
</svg>
