<svg width="13" height="13" viewBox="0 0 13 13" fill="none" xmlns="http://www.w3.org/2000/svg">
<path fill-rule="evenodd" clip-rule="evenodd" d="M6.50058 4.82816C5.50308 4.82816 4.69446 5.63678 4.69446 6.63428C4.69446 7.63177 5.50308 8.4404 6.50058 8.4404C7.49807 8.4404 8.3067 7.63177 8.3067 6.63428C8.3067 5.63678 7.49807 4.82816 6.50058 4.82816ZM3.71486 6.63428C3.71486 5.09577 4.96207 3.84856 6.50058 3.84856C8.03909 3.84856 9.28629 5.09577 9.28629 6.63428C9.28629 8.17279 8.03909 9.41999 6.50058 9.41999C4.96207 9.41999 3.71486 8.17279 3.71486 6.63428Z" fill="#2A2A2A"/>
<path fill-rule="evenodd" clip-rule="evenodd" d="M4.39219 0.660073C4.52337 0.615729 4.66719 0.628982 4.78806 0.696554L6.50058 1.65396L8.2131 0.696553C8.33374 0.629107 8.47726 0.615772 8.60827 0.659838C9.38282 0.92038 10.1012 1.32477 10.7258 1.85178C10.8357 1.94447 10.8993 2.08074 10.8997 2.22448L10.9061 4.13779L12.6022 5.10376C12.7258 5.17416 12.8127 5.29482 12.8403 5.43437C12.9967 6.22588 12.9967 7.04038 12.8403 7.83189C12.8126 7.97157 12.7256 8.09233 12.6018 8.1627L10.9065 9.12641L10.898 11.04C10.8974 11.1832 10.8341 11.3189 10.7249 11.4115C10.1013 11.9401 9.38352 12.3462 8.60921 12.6084C8.47786 12.6529 8.33381 12.6396 8.21281 12.5718L6.50325 11.6146L4.78777 12.5722C4.66719 12.6395 4.52379 12.6527 4.39289 12.6087C3.61833 12.3482 2.89991 11.9438 2.27534 11.4168C2.16548 11.3241 2.10189 11.1878 2.10141 11.0441L2.09503 9.13077L0.397859 8.16423C0.274244 8.09383 0.187342 7.97317 0.159752 7.83361C0.00326793 7.0421 0.00326793 6.22761 0.159752 5.43609C0.187368 5.29641 0.274405 5.17565 0.398192 5.10529L2.09348 4.14157L2.10199 2.22796C2.10262 2.08473 2.16592 1.94895 2.27522 1.85638C2.89924 1.32785 3.61749 0.921961 4.39219 0.660073ZM8.49681 1.66023L6.85439 2.57844C6.78134 2.61928 6.69906 2.64072 6.61537 2.64072H6.38668C6.303 2.64072 6.21981 2.61928 6.14677 2.57844L4.50475 1.66045C3.9927 1.85598 3.51268 2.12678 3.08054 2.46389L3.07239 4.29864C3.07199 4.38754 3.0474 4.47466 3.00127 4.55065C2.96467 4.61093 2.92881 4.67196 2.8942 4.73319C2.8506 4.81033 2.78689 4.8742 2.70985 4.91799L1.08261 5.84303C1.00176 6.36789 1.00177 6.90205 1.08264 7.4269L2.71191 8.35477C2.79221 8.4005 2.85793 8.46801 2.90149 8.54951C2.93028 8.60338 2.96236 8.65766 2.99799 8.71387C3.04742 8.79183 3.0738 8.88217 3.07411 8.97448L3.08022 10.8083C3.51262 11.1442 3.99266 11.4139 4.50453 11.6084L6.14993 10.69C6.2229 10.6492 6.30508 10.6278 6.38865 10.6278H6.61734C6.70114 10.6278 6.78443 10.6493 6.85754 10.6903L8.49645 11.608C9.0081 11.4122 9.48771 11.1413 9.91947 10.8042L9.92762 8.96935C9.92802 8.88044 9.95261 8.79332 9.99874 8.71733C10.0353 8.65705 10.0712 8.59602 10.1058 8.53479C10.1494 8.45765 10.2131 8.39378 10.2902 8.34999L11.9174 7.42495C11.9982 6.90009 11.9982 6.36593 11.9174 5.84107L10.2892 4.91378C10.2089 4.86805 10.1432 4.80054 10.0997 4.71905C10.0709 4.66517 10.0388 4.61089 10.0032 4.55468C9.95374 4.47672 9.92735 4.38638 9.92705 4.29407L9.92093 2.46024C9.48859 2.12436 9.00861 1.85473 8.49681 1.66023Z" fill="#2A2A2A"/>
</svg>
